<svg enable-background="new 0 0 50 50" height="20" viewBox="0 0 50 50" width="20" xmlns="http://www.w3.org/2000/svg"><path d="m31.207 40.255c0-1.941-1.674-3.416-1.674-3.416 8.575-.736 11.523-6.098 11.39-11.457-.134-5.36-2.68-7.57-2.68-7.57 1.474-4.222-.268-6.633-.268-6.633-3.016.134-6.835 2.68-6.835 2.68-5.025-1.742-12.327.067-12.327.067-4.021-2.881-6.701-2.546-6.701-2.546-1.675 2.931-.335 6.415-.335 6.415-3.166 2.361-2.663 7.638-2.663 7.638.201 11.506 11.507 11.432 11.507 11.432-1.507.527-1.658 3.316-1.658 3.316s-1.29.813-2.897.813-3.551-1.34-4.489-3.016c-.938-1.674-2.881-2.479-4.221-2.277s.134 1.207.134 1.207c2.479 1.137 2.814 3.482 2.814 3.482 1.206 2.412 3.551 3.217 3.551 3.217 1.608.602 4.958.066 4.958.066v5.746l12.394-.018c0-1.099 0-7.375 0-9.146zm-21.904-3.215c-.188 0-.339-.191-.339-.428s.151-.426.339-.426.339.189.339.426-.151.428-.339.428zm.98.854c-.188 0-.339-.18-.339-.402 0-.221.152-.402.339-.402s.339.182.339.402c.001.222-.151.402-.339.402zm1.043 1.482c-.208 0-.377-.225-.377-.502s.169-.502.377-.502.376.225.376.502-.168.502-.376.502zm1.168 1.457c-.188 0-.339-.264-.339-.59s.152-.59.339-.59.339.264.339.59-.152.59-.339.59zm1.734.83c-.313 0-.565-.176-.565-.389 0-.217.253-.391.565-.391s.565.174.565.391c0 .213-.253.389-.565.389zm2.098.402c-.292 0-.528-.232-.528-.516 0-.285.236-.516.528-.516s.527.23.527.516c0 .284-.236.516-.527.516zm1.846-.203c-.326 0-.591-.223-.591-.502 0-.277.265-.5.591-.5s.59.223.59.5c.001.28-.263.502-.59.502z" fill="none"/><g fill="#1a171b"><ellipse cx="10.283" cy="37.491" rx=".339" ry=".402"/><ellipse cx="12.494" cy="40.243" rx=".339" ry=".59"/><ellipse cx="11.326" cy="38.874" rx=".377" ry=".502"/><ellipse cx="9.303" cy="36.613" rx=".339" ry=".427"/><path d="m50 25.985c0-13.765-11.158-24.923-24.923-24.923-13.764 0-24.923 11.159-24.923 24.923 0 11.448 7.717 21.09 18.232 24.014.411.029.427-.58.427-.58v-5.746s-3.35.535-4.958-.066c0 0-2.345-.805-3.551-3.217 0 0-.335-2.346-2.814-3.482 0 0-1.474-1.006-.134-1.207s3.283.604 4.221 2.277c.938 1.676 2.881 3.016 4.489 3.016s2.897-.813 2.897-.813.151-2.789 1.658-3.316c0 0-11.306.074-11.507-11.432 0 0-.502-5.276 2.663-7.638 0 0-1.34-3.484.335-6.415 0 0 2.68-.335 6.701 2.546 0 0 7.302-1.809 12.327-.067 0 0 3.819-2.546 6.835-2.68 0 0 1.741 2.411.268 6.633 0 0 2.546 2.21 2.68 7.57.134 5.359-2.814 10.721-11.39 11.457 0 0 1.674 1.475 1.674 3.416v9.146c.085.402.687.535.687.535s-.002.012-.012.031c10.457-2.96 18.118-12.575 18.118-23.982z"/><ellipse cx="14.228" cy="41.273" rx=".565" ry=".39"/><ellipse cx="18.172" cy="41.361" rx=".591" ry=".501"/><ellipse cx="16.326" cy="41.55" rx=".528" ry=".516"/></g></svg>