<?xml version="1.0" encoding="UTF-8"?>
<svg width="120px" height="27px" viewBox="0 0 120 27" version="1.1" xmlns="http://www.w3.org/2000/svg" xmlns:xlink="http://www.w3.org/1999/xlink">
    <title>编组 2</title>
    <defs>
        <linearGradient x1="50%" y1="4.03951156%" x2="50%" y2="100%" id="linearGradient-1">
            <stop stop-color="#FAB936" offset="0%"></stop>
            <stop stop-color="#E82B71" offset="100%"></stop>
        </linearGradient>
    </defs>
    <g id="定稿" stroke="none" stroke-width="1" fill="none" fill-rule="evenodd">
        <g id="元素小尺寸" transform="translate(-330.000000, -2618.000000)" fill-rule="nonzero">
            <g id="编组-3" transform="translate(0.000000, 2586.000000)">
                <g id="编组-3备份" transform="translate(150.000000, 32.000000)">
                    <g id="编组-2" transform="translate(180.000000, 0.000000)">
                        <path d="M4.39500662,25.6016414 L16.9772445,25.6021435 C16.7609955,25.7620121 16.5385384,25.9138498 16.3103056,26.0572207 C15.7628074,26.4011472 15.182073,26.6963513 14.574071,26.9368163 L6.79934754,26.9370095 C5.95006277,26.601166 5.15397606,26.1585188 4.42735414,25.6254653 L4.39500662,25.6016414 Z M19.3363673,23.2021764 C18.9977041,23.6767402 18.6215574,24.1223016 18.2122967,24.534456 L3.16150311,24.5353471 C2.7519651,24.1230249 2.3755686,23.677267 2.0366841,23.2024967 Z M7.09189333,0.000482467739 L7.13848927,0.0239157501 C10.2239832,1.59404803 12.3399323,4.81799335 12.3399323,8.54012205 C12.3399323,8.83222203 12.326901,9.12125392 12.3013919,9.40665878 L12.3578066,9.4063473 C12.3459884,9.53800849 12.3399323,9.6716282 12.3399323,9.80686948 C12.3399323,11.9425067 13.8501085,13.6737827 15.7130053,13.6737827 C17.5759021,13.6737827 19.0860783,11.9425067 19.0860783,9.80686948 C19.0860783,9.43161773 19.0394534,9.06885016 18.9524826,8.72576505 L18.9077937,8.568 L18.9142133,8.59098609 C18.9168731,8.57086652 18.9180982,8.56033839 18.9180982,8.56033839 C19.8122737,10.056237 20.5015334,11.667227 20.9671174,13.349461 C21.2543374,14.3850921 21.3675547,15.4250125 21.3260417,16.4398411 C21.3318717,16.5976131 21.3347937,16.7644051 21.3347937,16.9406577 C21.3347937,18.9463767 20.78907,20.8236094 19.839135,22.4297048 L15.7894802,17.9358765 L12.0232942,20.1573198 L7.95581339,15.4676062 L1.52575057,22.4164186 C1.27127971,21.9848578 1.04596397,21.5338018 0.852538359,21.0660186 C0.32440728,19.9717696 0.0236364992,18.7104202 0.00121388533,17.2857763 C0.000577779274,17.2454065 0.000165160712,17.2049056 -2.58577519e-05,17.1636106 L-7.96755657e-06,17.0589667 L0.00100010719,16.9539291 C0.00145644438,16.9219643 0.00204999227,16.8899201 0.00278958398,16.857433 C0.0104985043,16.5192852 0.0334717069,16.1723611 0.0723025281,15.817111 C0.0769838773,15.7742705 0.0818959589,15.7313033 0.0870767264,15.687901 C0.0963731932,15.6100346 0.106426605,15.531755 0.117230004,15.453161 L0.149793682,15.235 L0.185793682,15.013 L0.188793682,14.997 L0.194449318,14.9581657 C0.26438215,14.5569437 0.356467407,14.1773523 0.467492166,13.8173525 C0.553451742,13.5385905 0.650805509,13.2713668 0.761328907,13.0069007 C0.819205569,12.8687733 0.879962365,12.7336711 0.943659294,12.6023654 C1.79116029,10.6711561 3.18715133,9.03917597 4.93373935,7.9075381 C7.11556547,5.89642362 8.84162903,4.02101763 7.09189333,0.000482467739 Z" id="形状结合备份-14" fill="url(#linearGradient-1)"></path>
                        <g id="Web3Camp备份-2" transform="translate(26.415094, 10.566038)" fill="#000000">
                            <polygon id="路径" points="3.31453587 12.0743807 5.96954675 12.0743807 8.18487429 4.26154612 10.4171127 12.0743807 13.0721236 12.0743807 16.3866595 0.236752562 13.9345794 0.236752562 11.6685191 9.01350826 9.18261723 0.236752562 7.18713135 0.236752562 4.71814035 9.01350826 2.45208011 0.236752562 0 0.236752562"></polygon>
                            <path d="M19.4813537,8.7429339 L25.856762,8.7429339 C25.9074947,8.45544865 25.9413165,8.1679634 25.9413165,7.84665635 C25.9413165,5.36075444 24.1656722,3.38217946 21.6628594,3.38217946 C19.0078486,3.38217946 17.1983826,5.32693265 17.1983826,7.84665635 C17.1983826,10.36638 18.9909377,12.3111332 21.8319684,12.3111332 C23.4554146,12.3111332 24.7237319,11.6516082 25.518544,10.5016672 L23.7598107,9.48701339 C23.387771,9.97742941 22.7113351,10.3325583 21.8657902,10.3325583 C20.7158492,10.3325583 19.7857498,9.85905313 19.4813537,8.7429339 Z M19.4475319,7.05184417 C19.7011954,5.96954675 20.4960075,5.34384355 21.6628594,5.34384355 C22.5760479,5.34384355 23.4892364,5.83425957 23.7598107,7.05184417 L19.4475319,7.05184417 Z" id="形状"></path>
                            <path d="M32.3843683,3.38217946 C31.1498728,3.38217946 30.2535953,3.83877369 29.644803,4.61667496 L29.644803,0.236752562 L27.4632972,0.236752562 L27.4632972,12.0743807 L29.644803,12.0743807 L29.644803,11.0766377 C30.2535953,11.854539 31.1498728,12.3111332 32.3843683,12.3111332 C34.6504286,12.3111332 36.5106273,10.36638 36.5106273,7.84665635 C36.5106273,5.32693265 34.6504286,3.38217946 32.3843683,3.38217946 Z M31.9785068,10.2310929 C30.6425459,10.2310929 29.644803,9.26717172 29.644803,7.84665635 C29.644803,6.42614097 30.6425459,5.46221983 31.9785068,5.46221983 C33.3313786,5.46221983 34.3291215,6.42614097 34.3291215,7.84665635 C34.3291215,9.26717172 33.3313786,10.2310929 31.9785068,10.2310929 Z" id="形状"></path>
                            <path d="M43.0213227,5.0394474 L45.2366503,2.16459485 L45.2366503,0.236752562 L37.7958555,0.236752562 L37.7958555,2.41825831 L42.4294413,2.41825831 L40.0957375,5.46221983 L40.9920151,6.81509161 L41.499342,6.81509161 C42.7169266,6.81509161 43.3933625,7.47461661 43.3933625,8.42162686 C43.3933625,9.385548 42.7169266,10.0281621 41.499342,10.0281621 C40.3832228,10.0281621 39.7236978,9.53774608 39.4362125,8.65837942 L37.4407266,9.80832043 C38.1171625,11.4994102 39.7236978,12.3111332 41.499342,12.3111332 C43.7315804,12.3111332 45.7270663,10.9582615 45.7270663,8.42162686 C45.7270663,6.67980443 44.5602144,5.49604162 43.0213227,5.0394474 Z" id="路径"></path>
                            <path d="M52.9818412,12.3111332 C55.163347,12.3111332 57.0742784,11.2119249 58.0720213,9.52083518 L56.0596246,8.35398327 C55.5015649,9.385548 54.334713,10.0281621 52.9818412,10.0281621 C50.6650483,10.0281621 49.1430676,8.42162686 49.1430676,6.15556662 C49.1430676,3.87259548 50.6650483,2.26606024 52.9818412,2.26606024 C54.334713,2.26606024 55.484654,2.90867434 56.0596246,3.95714997 L58.0720213,2.79029805 C57.0573675,1.09920832 55.1464361,0 52.9818412,0 C49.396731,0 46.8262746,2.68883267 46.8262746,6.15556662 C46.8262746,9.60538967 49.396731,12.3111332 52.9818412,12.3111332 Z" id="路径"></path>
                            <path d="M65.9694104,3.61893202 L65.9694104,4.61667496 C65.3606181,3.85568458 64.4474296,3.38217946 63.2129341,3.38217946 C60.9637848,3.38217946 59.1035861,5.32693265 59.1035861,7.84665635 C59.1035861,10.36638 60.9637848,12.3111332 63.2129341,12.3111332 C64.4474296,12.3111332 65.3606181,11.8376281 65.9694104,11.0766377 L65.9694104,12.0743807 L68.1509161,12.0743807 L68.1509161,3.61893202 L65.9694104,3.61893202 Z M63.6187956,10.2310929 C62.2828348,10.2310929 61.2850918,9.26717172 61.2850918,7.84665635 C61.2850918,6.42614097 62.2828348,5.46221983 63.6187956,5.46221983 C64.9716674,5.46221983 65.9694104,6.42614097 65.9694104,7.84665635 C65.9694104,9.26717172 64.9716674,10.2310929 63.6187956,10.2310929 Z" id="形状"></path>
                            <path d="M79.4812173,3.38217946 C78.3312763,3.38217946 77.4857314,3.83877369 76.9614936,4.59976407 C76.4879885,3.82186279 75.7100872,3.38217946 74.6616116,3.38217946 C73.5793142,3.38217946 72.784502,3.80495189 72.3109969,4.51520958 L72.3109969,3.61893202 L70.1294911,3.61893202 L70.1294911,12.0743807 L72.3109969,12.0743807 L72.3109969,7.32241853 C72.3109969,6.05410123 72.9705219,5.41148714 73.9006212,5.41148714 C74.8138097,5.41148714 75.3211366,6.02027944 75.3211366,7.01802238 L75.3211366,12.0743807 L77.5026423,12.0743807 L77.5026423,7.32241853 C77.5026423,6.05410123 78.1114346,5.41148714 79.0753558,5.41148714 C79.9885442,5.41148714 80.4958711,6.02027944 80.4958711,7.01802238 L80.4958711,12.0743807 L82.6773769,12.0743807 L82.6773769,6.8658243 C82.6773769,4.75196214 81.4090596,3.38217946 79.4812173,3.38217946 Z" id="路径"></path>
                            <path d="M89.4586467,3.38217946 C88.2241512,3.38217946 87.3278737,3.83877369 86.7190814,4.61667496 L86.7190814,3.61893202 L84.5375756,3.61893202 L84.5375756,15.4565601 L86.7190814,15.4565601 L86.7190814,11.0766377 C87.3278737,11.854539 88.2241512,12.3111332 89.4586467,12.3111332 C91.724707,12.3111332 93.5849057,10.36638 93.5849057,7.84665635 C93.5849057,5.32693265 91.724707,3.38217946 89.4586467,3.38217946 Z M89.0527852,10.2310929 C87.7168243,10.2310929 86.7190814,9.26717172 86.7190814,7.84665635 C86.7190814,6.42614097 87.7168243,5.46221983 89.0527852,5.46221983 C90.405657,5.46221983 91.4033999,6.42614097 91.4033999,7.84665635 C91.4033999,9.26717172 90.405657,10.2310929 89.0527852,10.2310929 Z" id="形状"></path>
                        </g>
                    </g>
                </g>
            </g>
        </g>
    </g>
</svg>