<svg fill="#1da1f2" viewBox="0 0 60 60" xmlns="http://www.w3.org/2000/svg"><path d="m60 31.4285714v.0028572c0 4.2685714-2.2427503 7.9914285-5.5511642 9.9542857.0599971.4828571.0942812.9685714.0942812 1.4657143 0 6.3142857-4.8797676 11.4285714-10.908052 11.4285714-1.3456502 0-2.6313033-.2428571-3.8169611-.7085714-1.7684872 3.8114285-5.4997381 6.4285714-9.8195324 6.4285714-4.3169373 0-8.0481882-2.6171429-9.8195324-6.4285714-1.1856578.4685714-2.4713109.7142857-3.8141041.7142857-6.0282844 0-10.90805199-5.1142857-10.90805199-11.4285714 0-.4971429.03428408-.9828572.09142421-1.4685715-3.3141279-1.9657143-5.54830722-5.6885714-5.54830722-9.96 0-4.52 2.49988096-8.4285714 6.13399362-10.2857143-.43997905-1.2457142-.67711061-2.5885714-.67711061-4 0-6.3142857 4.87976759-11.42857139 10.90805199-11.42857139 1.3427932 0 2.6313033.24285715 3.8169611.71428572 1.7742012-3.80857143 5.5054521-6.42857143 9.8195324-6.42857143s8.0510452 2.61428571 9.8166754 6.43428571c1.1885148-.47428571 2.4741679-.71428571 3.8169611-.71428571 6.0225704 0 10.908052 5.1085714 10.908052 11.4228571 0 1.4142858-.2399886 2.7571429-.6799676 4 3.6369696 1.8571429 6.1368506 5.7714286 6.1368506 10.2857143zm-18.2629167-15.4285714-15.9870833 17.0461053-7.4885-7.3846316-5.2615 5.4762105 12.75 12.8623158 21.25-22.5252632z"/></svg>