<?xml version="1.0" encoding="UTF-8"?>
<svg width="371px" height="49px" viewBox="0 0 371 49" version="1.1" xmlns="http://www.w3.org/2000/svg" xmlns:xlink="http://www.w3.org/1999/xlink">
    <title>Group</title>
    <g stroke="none" stroke-width="1" fill="none" fill-rule="evenodd" stroke-linecap="square">
        <g id="Artboard" transform="translate(-1140.000000, -161.000000)" stroke="#CFCFCF">
            <g id="Group" transform="translate(1140.000000, 161.000000)">
                <line x1="1.49596786" y1="0.5" x2="369" y2="0.5"></line>
                <line x1="1.49596786" y1="16.5" x2="369" y2="16.5"></line>
                <line x1="1.49596786" y1="32.5" x2="369" y2="32.5"></line>
                <line x1="1.49596786" y1="48.5" x2="369" y2="48.5"></line>
                <line x1="1.49596786" y1="0.5" x2="1.5040107" y2="48.5" ></line>
                <line x1="17.4959679" y1="0.5" x2="17.5040107" y2="48.5" ></line>
                <line x1="33.4959679" y1="0.5" x2="33.5040107" y2="48.5"></line>
                <line x1="49.4959679" y1="0.5" x2="49.5040107" y2="48.5"></line>
                <line x1="65.4959679" y1="0.5" x2="65.5040107" y2="48.5"></line>
                <line x1="81.4959679" y1="0.5" x2="81.5040107" y2="48.5"></line>
                <line x1="97.4959679" y1="0.5" x2="97.5040107" y2="48.5"></line>
                <line x1="113.495968" y1="0.5" x2="113.504011" y2="48.5"></line>
                <line x1="129.495968" y1="0.5" x2="129.504011" y2="48.5"></line>
                <line x1="145.495968" y1="0.5" x2="145.504011" y2="48.5"></line>
                <line x1="161.495968" y1="0.5" x2="161.504011" y2="48.5"></line>
                <line x1="177.495968" y1="0.5" x2="177.504011" y2="48.5"></line>
                <line x1="193.495968" y1="0.5" x2="193.504011" y2="48.5"></line>
                <line x1="209.495968" y1="0.5" x2="209.504011" y2="48.5"></line>
                <line x1="225.495968" y1="0.5" x2="225.504011" y2="48.5"></line>
                <line x1="241.495968" y1="0.5" x2="241.504011" y2="48.5"></line>
                <line x1="257.495968" y1="0.5" x2="257.504011" y2="48.5"></line>
                <line x1="273.495968" y1="0.5" x2="273.504011" y2="48.5"></line>
                <line x1="289.495968" y1="0.5" x2="289.504011" y2="48.5"></line>
                <line x1="305.495968" y1="0.5" x2="305.504011" y2="48.5"></line>
                <line x1="321.495968" y1="0.5" x2="321.504011" y2="48.5"></line>
                <line x1="337.495968" y1="0.5" x2="337.504011" y2="48.5"></line>
                <line x1="353.495968" y1="0.5" x2="353.504011" y2="48.5"></line>
                <line x1="369.495968" y1="0.5" x2="369.504011" y2="48.5"></line>
            </g>
        </g>
    </g>
</svg>